<?xml version="1.0" standalone="no"?>
<!DOCTYPE svg PUBLIC "-//W3C//DTD SVG 20010904//EN"
 "http://www.w3.org/TR/2001/REC-SVG-20010904/DTD/svg10.dtd">
<svg version="1.0" xmlns="http://www.w3.org/2000/svg"
 width="592.000000pt" height="592.000000pt" viewBox="0 0 592.000000 592.000000"
 preserveAspectRatio="xMidYMid meet">
<metadata>
Created by potrace 1.11, written by Peter Selinger 2001-2013
</metadata>
<g transform="translate(0.000000,592.000000) scale(0.100000,-0.100000)"
fill="#000000" stroke="none">
<path d="M2970 5887 c-3 -2 -39 -7 -80 -10 -82 -7 -301 -36 -310 -42 -3 -2
-129 -6 -280 -9 -151 -4 -392 -9 -535 -12 -163 -3 -286 -10 -330 -19 -42 -9
-120 -14 -195 -13 -100 1 -144 -3 -218 -21 -84 -21 -100 -22 -177 -12 -86 12
-366 15 -440 6 -89 -12 -158 -54 -190 -116 -14 -26 -13 -30 9 -56 24 -28 26
-28 133 -27 97 0 116 4 191 33 82 33 84 33 295 37 481 10 646 11 722 2 153
-19 255 -18 315 2 68 23 114 24 210 5 44 -9 155 -18 270 -21 202 -5 251 -8
310 -20 72 -14 904 -6 1105 11 376 31 840 36 1010 10 61 -9 202 -18 315 -21
364 -8 376 -10 481 -73 110 -66 131 -123 109 -296 -7 -55 -16 -129 -21 -165
-8 -65 -4 -572 5 -620 2 -14 7 -70 11 -125 4 -55 8 -113 10 -130 29 -223 39
-270 65 -313 38 -63 82 -52 129 30 l31 53 0 380 c0 209 -4 396 -10 415 -10 41
-36 274 -45 407 -7 115 -12 142 -40 223 -12 36 -30 101 -40 145 -9 44 -26 96
-36 117 -20 39 -63 78 -85 78 -8 0 -22 4 -32 9 -76 40 -180 67 -302 76 -47 3
-107 8 -135 10 -27 2 -90 7 -140 10 -49 3 -108 8 -130 10 -37 4 -138 9 -385
20 -52 2 -192 7 -310 10 -118 4 -253 9 -300 11 -143 6 -955 16 -960 11z"/>
<path d="M2136 5508 c-58 -60 -83 -125 -93 -246 -7 -85 -23 -112 -67 -112 -39
0 -75 25 -201 141 -49 45 -110 95 -134 111 -55 35 -115 38 -131 8 -15 -29 4
-65 105 -194 47 -59 85 -112 85 -116 0 -17 -41 -22 -195 -26 -88 -3 -178 -7
-200 -10 -43 -5 -100 -38 -159 -92 l-36 -32 0 -333 c-1 -605 -7 -726 -45 -957
-39 -233 -44 -275 -50 -415 -7 -179 45 -168 143 30 47 95 78 180 117 315 39
138 51 202 64 332 6 63 14 94 30 117 37 52 58 58 256 86 17 2 77 7 135 10 101
6 107 5 155 -22 27 -15 51 -36 53 -45 2 -12 -50 -73 -151 -177 -84 -87 -161
-175 -171 -195 -10 -21 -18 -68 -20 -118 -5 -104 7 -131 102 -220 85 -80 171
-133 283 -172 26 -9 55 -26 65 -37 19 -21 18 -21 -11 -45 -44 -36 -181 -100
-251 -118 -72 -19 -103 -31 -164 -68 -25 -15 -79 -38 -122 -52 -94 -30 -121
-44 -184 -94 l-50 -39 2 -229 c2 -126 -1 -251 -6 -279 -23 -144 -26 -224 -10
-365 9 -83 10 -151 4 -245 -15 -216 11 -346 71 -361 87 -22 112 162 119 846
l2 245 35 18 c50 24 148 41 304 52 50 3 143 13 208 22 125 16 161 13 171 -13
7 -20 -6 -45 -50 -94 -46 -50 -91 -65 -229 -76 -92 -7 -161 -41 -219 -105 -65
-72 -63 -59 -81 -494 -3 -66 -8 -141 -11 -168 l-6 -47 77 -73 77 -73 91 23
c51 13 122 26 158 29 l67 7 32 -44 c17 -24 38 -56 46 -71 13 -25 12 -29 -11
-53 -59 -58 -124 -77 -315 -90 -89 -6 -172 -19 -302 -46 -48 -10 -61 -9 -80 3
-54 35 -110 30 -123 -12 -8 -26 10 -57 43 -74 35 -18 108 -25 322 -31 457 -13
489 -18 514 -88 8 -23 20 -74 26 -114 5 -40 26 -141 45 -225 28 -123 33 -155
22 -165 -24 -24 -147 -39 -392 -48 -292 -11 -477 -20 -705 -34 -134 -9 -339
-4 -409 9 -171 31 -294 -5 -308 -92 -5 -32 -1 -41 24 -67 35 -35 76 -47 198
-59 101 -10 876 -10 915 0 52 14 194 21 445 23 287 1 451 -7 595 -30 80 -12
212 -14 860 -11 421 2 799 8 840 13 41 6 219 8 395 5 586 -8 535 -11 650 35
55 22 120 45 145 52 72 21 198 89 245 132 60 55 105 129 121 197 19 80 20
1185 2 1264 -15 62 -18 729 -4 793 5 22 11 132 13 244 l5 204 -28 61 -27 61
17 125 c9 69 16 146 16 173 0 55 -29 123 -69 161 -38 36 -64 24 -84 -41 -24
-73 -26 -95 -33 -273 -3 -91 -7 -167 -9 -170 -2 -3 -7 -42 -10 -85 -4 -44 -9
-83 -12 -87 -5 -10 -4 -272 2 -313 18 -129 25 -443 13 -580 -4 -44 -10 -161
-13 -260 -3 -99 -7 -268 -10 -375 -9 -299 -25 -462 -47 -476 -14 -9 -43 21
-102 106 -105 149 -185 300 -231 430 -12 36 -41 106 -63 155 -22 50 -45 110
-52 135 -16 66 -38 133 -80 245 -87 229 -113 326 -140 509 -28 187 -54 236
-86 161 -25 -61 -25 -139 1 -360 17 -152 45 -286 74 -367 30 -81 38 -118 57
-248 11 -78 35 -150 102 -305 67 -156 155 -393 187 -505 24 -86 34 -103 95
-180 47 -59 52 -69 47 -106 -6 -57 -47 -143 -92 -193 -43 -48 -98 -69 -142
-54 -40 14 -175 7 -306 -16 -183 -32 -166 -30 -581 -46 -231 -10 -277 -19
-322 -65 -16 -16 -33 -30 -37 -30 -5 0 -46 18 -90 40 -94 46 -147 53 -232 33
-49 -12 -124 -14 -415 -9 -445 8 -491 11 -537 35 -53 27 -107 40 -188 47 -38
4 -72 8 -73 10 -2 1 1 51 7 111 6 59 14 133 17 163 18 182 42 238 117 270 62
27 73 28 297 35 204 5 252 10 292 31 30 16 44 50 33 83 -13 42 -145 78 -320
86 -315 15 -297 13 -323 43 -45 53 -73 104 -70 125 3 21 8 22 83 21 44 -1 122
-3 174 -6 116 -6 167 4 213 42 39 32 88 125 88 168 0 15 -6 58 -14 95 -9 44
-15 137 -16 260 0 106 -5 208 -10 228 -22 80 -150 182 -218 174 -134 -16 -191
-16 -224 -1 -32 16 -163 134 -156 141 6 6 110 14 258 20 114 5 147 10 220 36
83 28 87 29 137 14 28 -8 55 -21 61 -28 28 -33 43 -163 57 -482 9 -222 18
-353 31 -470 3 -27 18 -81 33 -120 22 -59 30 -70 50 -70 18 0 30 12 50 50 l26
50 0 500 c1 480 -4 651 -20 798 l-7 67 -92 57 c-206 128 -474 245 -600 264
-70 10 -146 35 -146 49 0 33 178 125 349 180 102 33 196 73 230 98 l34 25 -26
23 c-29 25 -119 61 -175 70 -25 4 -62 -2 -118 -20 -45 -14 -140 -35 -212 -46
-72 -11 -168 -29 -214 -39 -46 -11 -110 -22 -143 -25 -33 -3 -87 -8 -121 -11
l-60 -6 -41 44 c-52 57 -76 103 -75 144 2 46 79 240 105 265 12 11 54 35 93
54 71 34 149 100 193 165 13 18 39 46 58 61 43 33 73 36 438 42 154 2 294 7
310 10 157 34 183 79 192 341 6 181 -10 315 -52 418 -48 119 -84 147 -191 147
-53 0 -129 18 -184 43 -19 8 -52 20 -72 27 -21 6 -40 16 -43 21 -8 12 10 44
77 130 68 89 76 129 31 153 -70 35 -138 2 -285 -143 -65 -63 -124 -119 -133
-123 -41 -23 -98 64 -110 167 -13 118 -47 200 -96 225 -19 11 -27 6 -73 -42z
m867 -566 c14 -16 67 -178 67 -207 0 -6 -9 -20 -20 -30 -18 -17 -36 -17 -227
-11 -115 3 -224 8 -243 11 -19 2 -59 7 -89 9 -29 3 -60 11 -67 17 -21 17 -18
102 4 121 31 27 130 54 237 63 85 8 257 34 264 40 11 12 59 3 74 -13z m-1003
-35 c49 -22 80 -54 80 -81 0 -31 -57 -81 -128 -114 -49 -22 -62 -24 -131 -17
-132 13 -197 6 -293 -31 l-46 -18 -69 35 c-80 40 -89 61 -49 114 53 69 156
110 306 122 41 3 77 7 79 9 12 11 220 -5 251 -19z m884 -382 c105 -22 155 -52
194 -116 18 -29 31 -58 29 -63 -2 -5 -21 -16 -43 -24 -31 -13 -111 -16 -416
-20 l-378 -4 0 45 c0 67 16 79 169 133 53 18 114 40 136 48 52 20 218 20 309
1z m-1239 -19 c22 0 93 3 157 7 105 8 121 6 160 -11 24 -11 56 -34 72 -51 l30
-31 -38 -39 c-21 -22 -66 -52 -100 -68 l-61 -28 -289 0 c-205 0 -290 3 -293
11 -5 16 61 82 162 160 64 50 97 64 130 57 17 -3 48 -7 70 -7z m513 -1600 l37
-35 0 -88 c0 -71 -5 -96 -23 -130 -29 -56 -56 -73 -117 -73 -27 0 -75 -7 -105
-15 -83 -22 -163 -20 -185 5 -18 19 -18 27 -6 107 6 48 15 93 19 100 8 13 52
39 147 87 28 14 68 36 90 50 57 36 97 34 143 -8z m383 -40 c41 -19 142 -58
224 -86 163 -57 291 -115 300 -137 2 -8 0 -23 -5 -34 -26 -49 -132 -68 -240
-43 -36 8 -114 16 -175 17 -121 4 -168 18 -210 63 -38 41 -65 110 -65 165 0
39 4 51 26 68 36 29 59 27 145 -13z m-360 -733 c9 -10 14 -43 14 -94 0 -63 -4
-83 -21 -106 -36 -49 -87 -68 -199 -71 l-100 -3 -23 35 c-26 42 -48 117 -40
138 4 8 21 18 39 22 17 3 64 22 103 42 89 46 110 52 167 53 32 1 51 -4 60 -16z
m535 -56 c63 -37 124 -112 124 -153 0 -33 -45 -64 -92 -64 -21 0 -69 7 -106
16 -212 49 -232 59 -232 119 0 47 11 52 162 71 26 3 60 9 75 14 38 11 45 11
69 -3z m137 -362 c14 -6 17 -20 17 -80 l0 -73 -51 -32 c-53 -35 -167 -80 -199
-80 -11 0 -48 11 -83 25 -52 21 -68 33 -85 64 -12 21 -22 50 -22 64 0 34 67
93 122 107 24 6 48 13 53 15 16 7 228 -2 248 -10z m-693 -24 c5 -11 10 -60 10
-110 l0 -91 -120 0 c-232 0 -336 47 -247 113 80 61 203 106 289 106 47 1 59
-3 68 -18z"/>
<path d="M4952 5418 c-21 -36 -47 -112 -56 -168 -3 -19 -8 -46 -11 -60 -9 -46
-7 -105 8 -175 10 -53 12 -89 5 -140 -9 -70 -12 -242 -4 -280 2 -11 7 -52 11
-91 6 -61 4 -79 -13 -115 -38 -83 -102 -129 -180 -129 -22 0 -45 6 -51 14 -13
16 -19 97 -26 406 -3 124 -8 237 -13 251 -9 33 -53 85 -78 93 -50 15 -49 35
-49 -656 0 -663 3 -717 40 -732 41 -15 52 10 105 224 34 139 55 196 77 204 9
4 46 -22 95 -67 l80 -72 -5 -110 c-10 -213 -28 -246 -184 -332 -51 -28 -112
-73 -148 -108 -52 -51 -64 -69 -79 -122 -9 -34 -19 -90 -22 -125 -8 -90 -42
-225 -71 -282 -24 -47 -26 -49 -39 -31 -8 11 -14 45 -15 84 0 36 -2 75 -4 86
-2 11 -6 40 -9 65 -8 57 -39 110 -65 110 -27 0 -46 -53 -56 -155 -3 -33 -8
-78 -10 -100 -2 -22 -7 -112 -11 -200 -3 -88 -7 -182 -9 -210 -2 -27 -7 -153
-11 -280 -6 -206 -4 -243 14 -355 12 -69 24 -161 27 -205 16 -220 19 -228 74
-228 45 0 58 17 70 91 27 174 35 331 34 654 l-1 247 30 10 c44 15 63 14 108
-9 59 -30 72 -20 84 65 12 88 20 164 42 425 20 228 63 306 229 416 103 67 119
71 194 45 33 -11 79 -23 103 -27 79 -11 105 -23 121 -57 24 -50 36 -105 42
-193 l7 -81 -77 -12 c-42 -6 -87 -11 -100 -11 -43 0 -181 -49 -223 -80 -68
-49 -105 -129 -77 -167 22 -29 142 -23 235 11 70 27 82 28 180 22 58 -3 117
-8 132 -10 54 -8 106 65 133 186 15 72 13 271 -5 330 -21 71 -105 143 -222
189 -29 11 -66 32 -81 47 -67 63 -167 276 -167 356 0 33 7 52 25 74 36 43 119
82 175 82 l46 0 27 -107 c48 -186 87 -302 111 -330 21 -24 28 -26 52 -18 18 6
31 21 37 40 9 28 14 817 7 1100 -6 254 -26 365 -64 365 -19 0 -65 -56 -87
-105 -9 -22 -22 -74 -28 -115 -11 -74 -15 -123 -26 -335 -3 -60 -8 -121 -10
-135 -2 -14 -7 -54 -10 -90 -9 -94 -11 -104 -23 -108 -10 -3 -97 50 -112 68
-3 3 -21 18 -40 32 l-35 27 -1 348 c0 191 -3 359 -7 373 -3 14 -8 61 -12 105
-11 152 -29 246 -53 283 -21 33 -57 28 -80 -10z"/>
<path d="M108 5423 c-9 -2 -19 -12 -23 -21 -24 -62 -39 -341 -40 -728 0 -278
4 -294 65 -294 50 0 75 30 111 131 l29 84 -4 220 c-3 121 -7 238 -11 260 -3
22 -13 85 -21 140 -21 141 -33 184 -57 200 -12 8 -24 14 -27 14 -3 -1 -12 -3
-22 -6z"/>
<path d="M822 5404 c-26 -18 -30 -46 -39 -274 -13 -361 -5 -520 27 -520 32 0
112 139 125 218 23 142 37 436 24 487 -9 32 -67 90 -99 98 -10 3 -27 -1 -38
-9z"/>
<path d="M468 5343 c-37 -43 -47 -115 -64 -463 -6 -133 -5 -1560 1 -1609 18
-133 133 -140 136 -9 1 29 2 80 4 113 1 33 5 158 9 278 4 120 9 233 12 250 2
18 5 93 5 167 2 116 -1 144 -20 199 -29 83 -29 146 -1 251 12 47 35 148 50
225 l28 140 -23 55 c-17 41 -24 84 -29 165 -10 196 -56 297 -108 238z"/>
<path d="M3462 5027 c-22 -27 -32 -110 -37 -329 -4 -156 -3 -183 14 -225 10
-26 21 -77 25 -113 8 -89 13 -114 37 -194 l21 -69 -36 -76 c-19 -42 -39 -94
-44 -116 -10 -46 -8 -368 3 -465 11 -103 44 -135 93 -90 52 49 78 184 87 458
3 97 8 202 10 232 2 30 7 208 11 396 l7 341 -47 90 c-44 85 -108 173 -126 173
-4 0 -12 -6 -18 -13z"/>
<path d="M3826 5015 c-6 -16 -1 -35 17 -73 8 -18 7 -43 -7 -109 -10 -47 -21
-117 -24 -157 -4 -39 -7 -526 -7 -1082 l0 -1011 38 -48 c20 -27 37 -53 37 -58
0 -5 -13 -25 -30 -43 -39 -45 -48 -85 -56 -249 -9 -179 -9 -246 -1 -370 4 -55
9 -152 12 -215 11 -218 23 -305 47 -335 24 -31 29 -31 60 0 45 45 56 116 63
395 5 247 12 370 21 414 3 11 7 163 9 336 8 497 14 711 25 764 12 61 59 124
125 167 108 72 122 94 131 221 3 46 7 89 9 95 8 24 19 479 18 727 -1 400 -15
527 -62 570 -41 37 -58 -3 -66 -156 -4 -62 -8 -131 -10 -153 -2 -22 -6 -209
-10 -415 -8 -541 -13 -599 -57 -640 -31 -29 -54 -25 -71 13 -34 73 -36 115
-53 941 -3 170 -7 322 -9 337 -9 66 -73 149 -115 149 -16 0 -30 -7 -34 -15z"/>
<path d="M779 4381 l-24 -19 1 -269 c2 -587 7 -654 50 -691 25 -22 27 -22 45
-6 26 23 37 66 44 169 4 50 11 126 16 170 5 44 11 112 15 150 3 39 7 88 9 110
3 22 7 110 11 196 l7 155 -49 21 c-79 33 -99 35 -125 14z"/>
<path d="M105 4296 c-42 -45 -83 -158 -94 -261 -4 -44 -7 -181 -5 -305 4 -314
22 -432 76 -482 36 -34 48 -35 76 -5 29 31 41 97 58 314 2 37 7 88 9 113 6 58
6 397 1 430 -3 14 -7 41 -10 60 -13 86 -49 170 -73 170 -3 0 -20 -15 -38 -34z"/>
<path d="M3118 3935 c-1 -1 -39 -6 -83 -9 -44 -4 -96 -8 -115 -10 -19 -3 -59
-7 -89 -10 -128 -15 -422 -61 -490 -78 -63 -15 -138 -54 -151 -78 -8 -16 -6
-22 12 -34 30 -19 51 -21 128 -13 36 4 88 10 115 12 260 25 616 86 680 117 50
24 74 63 52 85 -13 13 -51 25 -59 18z"/>
<path d="M3517 3140 c-29 -23 -41 -68 -57 -210 -6 -52 -13 -113 -15 -135 -11
-92 -17 -353 -18 -885 -1 -539 -1 -568 18 -619 11 -29 34 -70 52 -90 26 -30
34 -34 50 -25 34 21 44 61 51 216 12 264 8 1689 -6 1720 -17 41 -45 52 -75 28z"/>
<path d="M517 2968 c-20 -15 -33 -81 -41 -203 -8 -129 -19 -289 -21 -295 -1
-3 -5 -25 -9 -50 -14 -81 -91 -181 -164 -213 -33 -14 -169 -116 -198 -148 -12
-13 -35 -49 -50 -79 l-29 -55 0 -405 c0 -398 8 -621 25 -665 4 -12 5 -27 0
-34 -4 -7 -4 -29 1 -50 4 -20 11 -63 14 -96 10 -89 33 -206 44 -219 4 -6 12
-22 16 -36 18 -57 129 -186 187 -216 57 -29 91 5 55 55 -120 167 -145 212
-173 316 -17 62 -19 107 -18 385 0 173 3 326 7 340 3 14 6 33 6 43 1 11 39 56
86 102 47 45 85 87 85 93 0 6 -12 24 -26 41 -29 35 -46 35 -127 -6 -27 -13
-51 -22 -53 -20 -11 10 -22 120 -23 227 -2 102 0 119 18 141 36 46 283 199
322 199 25 0 42 -77 37 -167 -6 -102 -52 -209 -111 -255 l-40 -32 23 -18 c32
-26 62 -23 214 23 74 22 146 39 158 37 22 -3 76 -78 77 -109 1 -24 -53 -208
-72 -244 -17 -34 -26 -39 -140 -86 -123 -50 -260 -152 -312 -233 -38 -58 -24
-249 24 -350 27 -54 102 -124 168 -157 77 -37 173 -32 287 15 180 75 346 206
346 271 0 12 -9 30 -20 40 -19 17 -21 17 -57 -11 -21 -15 -67 -56 -103 -91
-103 -98 -141 -108 -288 -72 -167 40 -177 55 -170 262 l4 138 36 36 c33 33 41
36 124 44 172 18 284 77 337 179 26 49 28 63 25 130 -4 96 -29 147 -149 312
-102 140 -139 209 -146 273 -10 83 -11 83 183 -17 l177 -91 24 27 23 27 -20
37 c-37 71 -139 161 -292 260 -96 62 -97 62 -107 115 -11 52 -36 215 -45 294
-19 158 -42 232 -78 257 -27 19 -30 19 -51 4z"/>
<path d="M918 2925 c-44 -52 -64 -178 -63 -411 0 -132 5 -146 72 -213 30 -29
37 -32 49 -20 25 25 34 109 40 354 l5 240 -38 41 -38 41 -27 -32z"/>
<path d="M40 2935 c-12 -14 -16 -97 -6 -114 2 -3 7 -42 11 -86 23 -273 67
-410 145 -450 38 -20 77 -6 87 32 8 34 8 270 -1 332 -12 87 -50 182 -90 228
-59 68 -119 91 -146 58z"/>
</g>
</svg>
